<?xml version="1.0" standalone="no"?>
<!DOCTYPE svg PUBLIC "-//W3C//DTD SVG 20010904//EN"
 "http://www.w3.org/TR/2001/REC-SVG-20010904/DTD/svg10.dtd">
<svg version="1.0" xmlns="http://www.w3.org/2000/svg"
 width="225.000000pt" height="225.000000pt" viewBox="0 0 225.000000 225.000000"
 preserveAspectRatio="xMidYMid meet">
<metadata>
Created by potrace 1.14, written by Peter Selinger 2001-2017
</metadata>
<g transform="translate(0.000000,225.000000) scale(0.100000,-0.100000)"
fill="#000000" stroke="none">
<path d="M0 1125 l0 -1125 1120 0 1120 0 0 1125 0 1125 -1120 0 -1120 0 0
-1125z m2059 181 c8 -9 11 -45 9 -98 l-3 -83 -89 -3 c-65 -2 -92 1 -98 10 -12
21 -10 162 4 176 18 18 162 16 177 -2z m-1849 -91 c0 -42 2 -45 19 -35 26 14
64 13 79 -2 7 -7 12 -41 12 -82 0 -86 -18 -78 -22 9 -3 57 -5 60 -30 63 -36 4
-58 -30 -58 -90 0 -27 -4 -48 -10 -48 -6 0 -10 45 -10 115 0 70 4 115 10 115
6 0 10 -20 10 -45z m1410 20 c0 -8 -9 -15 -20 -15 -11 0 -20 7 -20 15 0 8 9
15 20 15 11 0 20 -7 20 -15z m-110 -25 c0 -13 7 -20 20 -20 11 0 20 -7 20 -15
0 -8 -9 -15 -20 -15 -17 0 -20 -7 -20 -41 0 -32 4 -42 20 -46 25 -7 27 -43 2
-43 -10 0 -28 7 -40 16 -18 12 -22 25 -22 65 0 27 -4 49 -10 49 -5 0 -10 7
-10 15 0 8 5 15 10 15 6 0 10 9 10 20 0 13 7 20 20 20 13 0 20 -7 20 -20z
m-374 -31 c3 -5 15 -2 28 6 17 12 30 13 49 6 29 -11 41 -50 35 -116 -2 -32 -7
-40 -23 -40 -18 0 -20 8 -23 63 -2 43 -7 62 -16 62 -23 0 -35 -23 -38 -75 -2
-38 -7 -51 -20 -53 -15 -3 -18 5 -18 50 0 65 -12 88 -37 72 -12 -8 -20 -28
-23 -65 -4 -41 -9 -55 -22 -57 -16 -3 -18 6 -18 77 l0 80 35 -1 c19 -1 38 1
41 4 7 8 43 -2 50 -13z m272 -6 c18 -24 16 -143 -2 -143 -8 0 -18 5 -22 11 -4
8 -9 8 -17 0 -26 -26 -87 2 -87 40 0 24 38 49 73 49 19 0 27 4 24 13 -2 6 -19
12 -38 11 -45 0 -56 18 -21 33 32 15 72 8 90 -14z m385 10 c4 -2 7 -11 7 -19
0 -11 -9 -13 -40 -8 -36 6 -40 4 -52 -21 -18 -40 -1 -60 52 -60 50 0 65 -20
25 -35 -43 -16 -74 -12 -100 15 -69 69 21 176 108 128z m-1296 -15 c50 -47 12
-138 -57 -138 -68 0 -105 87 -58 137 28 30 83 31 115 1z m83 12 c0 -7 6 -7 19
0 29 15 69 12 79 -6 8 -14 10 -14 21 0 16 19 62 21 79 4 15 -15 16 -148 2
-148 -5 0 -10 24 -10 54 0 69 -7 86 -35 86 -33 0 -43 -18 -47 -80 -4 -74 -22
-66 -28 12 -4 55 -8 63 -27 66 -31 5 -53 -33 -53 -90 0 -27 -4 -48 -10 -48 -6
0 -10 33 -10 80 0 47 4 80 10 80 6 0 10 -5 10 -10z m356 2 c13 -8 34 -46 34
-61 0 -7 -24 -11 -60 -11 -68 0 -80 -17 -34 -47 21 -13 32 -15 55 -6 32 13 40
-1 10 -17 -30 -15 -56 -12 -85 11 -33 26 -37 88 -6 119 20 20 65 26 86 12z
m684 -73 c0 -71 -2 -80 -17 -77 -15 3 -18 16 -21 81 -3 72 -1 77 18 77 18 0
20 -6 20 -81z"/>
<path d="M1900 1220 l0 -69 35 -7 c19 -3 50 -3 69 0 29 6 35 12 40 41 4 19 4
51 0 70 l-6 35 -69 0 -69 0 0 -70z m50 1 c0 -22 -4 -43 -10 -46 -6 -4 -10 12
-10 39 0 25 5 46 10 46 6 0 10 -18 10 -39z m75 14 c0 -11 -10 -24 -22 -30 -13
-5 -23 -15 -23 -22 0 -7 -4 -13 -10 -13 -5 0 -10 21 -10 46 0 45 0 45 33 42
24 -2 32 -8 32 -23z"/>
<path d="M1980 1236 c0 -9 7 -16 16 -16 9 0 14 5 12 12 -6 18 -28 21 -28 4z"/>
<path d="M1326 1091 c-3 -5 1 -14 9 -21 12 -10 18 -10 30 0 8 7 15 16 15 21 0
12 -47 12 -54 0z"/>
<path d="M394 1145 c-34 -52 15 -112 71 -87 54 25 35 112 -25 112 -20 0 -35
-8 -46 -25z"/>
<path d="M860 1151 c-10 -20 -8 -21 35 -21 39 0 46 3 43 18 -5 27 -64 29 -78
3z"/>
</g>
</svg>
